<svg xmlns="http://www.w3.org/2000/svg" viewBox="0 0 500 500"><g id="freepik--Shadow--inject-70"><ellipse id="freepik--path--inject-70" cx="250" cy="416.24" rx="193.89" ry="11.32" style="fill:#f5f5f5"></ellipse></g><g id="freepik--Character--inject-70"><path d="M181.53,240.12c-.09,3.68-.76,8.36-3.65,11-3.72,3.35-10,1-12.37-2.86" style="fill:none;stroke:#263238;stroke-linecap:round;stroke-linejoin:round;stroke-width:0.706753540165186px"></path><path d="M181.33,268.35l9,6.85s2.31.31,2.95,1.15,2.82,6.84,2.34,7.57-5.33,1.75-6.21.73-2-6.48-1.93-7l-11.61-7.57Z" style="fill:#eec1bb"></path><path d="M187.55,271.82l-3.15,5.39s-16.51-10.33-19.21-12c-.6-.36-1.82-2.07-3.26-4.57-5.17-9-13.21-28.06-5.64-31.84,4.14-2.07,6.53,4.51,6.53,4.51s.48,2.09,1.21,5c.29,1.19.62,2.53,1,3.93,0,0,0,0,0,0,1.67,6.54,3.83,14.4,4.86,15.33C171.66,259.32,187.55,271.82,187.55,271.82Z" style="fill:#407BFF"></path><path d="M161.93,260.67c-5.17-9-13.21-28.06-5.64-31.84,4.14-2.07,6.53,4.51,6.53,4.51s.48,2.09,1.21,5a28.89,28.89,0,0,1,1,3.93s0,0,0,0C165.85,247,166.33,254.72,161.93,260.67Z" style="opacity:0.2;isolation:isolate"></path><path d="M138.5,248.37s-5.38,1.84-14.41-2.28c-3.94-1.79-13.48-11.53-13.48-11.53s8.2-12.13,30.85-16.51c0,0,14.88,1.93,26.11,26.17C167.57,244.22,156.57,250.21,138.5,248.37Z" style="fill:#407BFF"></path><path d="M156.4,262.39l7.14,8.8s2.17.85,2.6,1.82,1.11,7.31.47,7.91-5.59.44-6.21-.77-.42-6.77-.2-7.29l-9.48-10.11Z" style="fill:#eec1bb"></path><polygon points="155.48 398.45 149.41 399.52 146.93 391.25 144.66 383.66 151.65 381.22 153.68 390.34 155.48 398.45" style="fill:#e4897b"></polygon><polygon points="153.72 390.52 146.96 391.42 144.67 383.74 151.66 381.26 153.72 390.52" style="opacity:0.2;isolation:isolate"></polygon><polygon points="114.99 401.24 108.83 401.24 107.82 392.57 106.9 384.65 114.22 383.44 114.63 392.86 114.99 401.24" style="fill:#e4897b"></polygon><polygon points="114.63 392.94 107.82 392.64 106.9 384.69 114.22 383.45 114.63 392.94" style="opacity:0.2;isolation:isolate"></polygon><path d="M123.34,413.44a10.44,10.44,0,0,0-3.29-1.79h0s-3.58-3.54-5.3-14.23l-4.68-1.22a4,4,0,0,0-4.26,1.67,2.17,2.17,0,0,0-.3.61A27.36,27.36,0,0,0,105,402a96.9,96.9,0,0,0-.07,11.73h.85l.34-7.36c.12-2.5,2,.43,2.58,3.12s1.71,5.56,7.19,5.69C122.3,415.26,125,415,123.34,413.44Z" style="fill:#263238"></path><path d="M164.2,412.72a10.33,10.33,0,0,0-3.29-1.79h0s-3.57-3.55-5.29-14.23l-4.69-1.22a4,4,0,0,0-4.26,1.66,2.07,2.07,0,0,0-.29.62,25.22,25.22,0,0,0-.5,3.47c-.48,3.62-.07,11.73-.07,11.73h.84l.34-7.36c.13-2.5,2,.43,2.59,3.12s1.71,5.56,7.19,5.69C163.16,414.54,165.82,414.29,164.2,412.72Z" style="fill:#263238"></path><path d="M154.29,385.71l-10,1.76c-10.07-25.07-17.22-46-22.28-63.35-2.72-9.37-5-17.71-6.62-25.1l.31,27.29v61.47H105.9c-23.57-112.27-26.45-131.63,2.23-151l3.05-2.78s1,5.12,9.67,10.39c7.26,4.41,16.39,4.7,16.39,4.7l-6.58,6.26,1.33,9.77,11.51,59.49Z" style="fill:#263238"></path><g style="opacity:0.2"><path d="M154.29,385.71l-10,1.76c-10.07-25.07-17.22-46-22.28-63.35-2.72-9.37-5-17.71-6.62-25.1l.31,27.29v61.47H105.9c-23.57-112.27-26.45-131.63,2.23-151l3.05-2.78s1,5.12,9.67,10.39c7.26,4.41,16.39,4.7,16.39,4.7l-6.58,6.26,1.33,9.77,11.51,59.49Z" style="fill:#fff"></path></g><path d="M122,324.12c-2.72-9.37-4.84-17.71-6.47-25.1a230.59,230.59,0,0,1,1.9-26.17S121.79,306.61,122,324.12Z" style="opacity:0.2;isolation:isolate"></path><path d="M111.18,234S119.5,245,138.5,248.37l-3.56,2.95a42.3,42.3,0,0,1-26.81-14.5Z"></path><path d="M132.52,247.67a1.53,1.53,0,0,0-.87-.84l-3-1.22a1.77,1.77,0,0,0-2.11.51l-1.06,1.5a1.15,1.15,0,0,0-.14,1.09,1.44,1.44,0,0,0,.74.78l.13.06,3,1.22a1.8,1.8,0,0,0,2.11-.52l1.05-1.49A1.18,1.18,0,0,0,132.52,247.67Zm-3,2.47-3-1.22a.74.74,0,0,1-.42-.41.56.56,0,0,1,.07-.53l1.06-1.49a.84.84,0,0,1,1-.25l3,1.22.06,0a.7.7,0,0,1,.36.38.56.56,0,0,1-.07.53l-.16.22a.33.33,0,0,0-.1-.06l-.84-.35a.59.59,0,0,0-.74.2.44.44,0,0,0,.26.63l.83.35h0l-.34.49A.88.88,0,0,1,129.57,250.14Z" style="fill:#fff"></path><path d="M183.46,215.59a14,14,0,0,1,2.85,11c-.71,5.83-2.55,14.3-1.53,19.59s-1.73,10.48-4.23,10.58c0,0,3.07-2.2,2.94-5.43s-1-8.64-1-8.64-.43,5.46-4,7.53-12.47-1.3-15.32-9.65-7.42-10.63-9.69-14.25-2.15-7,3.36-10.25S178.72,209.71,183.46,215.59Z" style="fill:#263238"></path><path d="M161.06,240.12l-2.61-1.38h0c-2,3.05-9.83,0-9.83,0-3.46-6.12,1.85-14.57,1.85-14.57,1.5,2.77,6.67,2.77,7.77,2.72h.21Z" style="fill:#eec1bb"></path><path d="M161.06,240.12l-2.61-1.38h0a14.52,14.52,0,0,0-4.93-1.09s-.42-6.32,3.93-10.25a2.87,2.87,0,0,1,.79-.51h.21Z" style="opacity:0.2;isolation:isolate"></path><path d="M178.15,213.56s9.48,4.6,6.51,12.7a13,13,0,0,1-11,8.49Z" style="fill:#263238"></path><path d="M174.91,216.81c6.72,3.87,6.82,8.72,3.32,15.93-4.37,9-9.83,14.07-17.18,7.38C151.07,231,163.73,210.38,174.91,216.81Z" style="fill:#eec1bb"></path><path d="M174.1,229.86a16.43,16.43,0,0,0,.35,3.92,2.14,2.14,0,0,1-2.21-.26Z" style="fill:#d4827d"></path><path d="M170.3,227c-.31.56-.86.84-1.23.64s-.43-.82-.12-1.38.85-.85,1.22-.65S170.6,226.38,170.3,227Z" style="fill:#263238"></path><path d="M170,225.51l1.48.18S170.32,226.39,170,225.51Z" style="fill:#263238"></path><path d="M177.32,230.62c-.3.56-.85.85-1.22.65s-.43-.83-.13-1.39.86-.85,1.23-.64S177.63,230.06,177.32,230.62Z" style="fill:#263238"></path><path d="M177,229.18l1.48.19S177.34,230.06,177,229.18Z" style="fill:#263238"></path><path d="M172.9,222.26a4,4,0,0,0-3.5-.66" style="fill:none;stroke:#263238;stroke-linecap:round;stroke-linejoin:round;stroke-width:0.706753540165186px"></path><path d="M178,224.79a3.6,3.6,0,0,1,2.36,2.1" style="fill:none;stroke:#263238;stroke-linecap:round;stroke-linejoin:round;stroke-width:0.706753540165186px"></path><path d="M161,223.92s6.33-3.72,8.3-8.26c0,0,16.47,2.22,9.34,16.13,0,0,8.22-11.27-3.19-18.19s-21.12,6.8-18,15.28C157.44,228.88,157.1,226.25,161,223.92Z" style="fill:#263238"></path><path d="M179.58,213.78s3.88,2.11,4.48,4.5-14.37,5.41-20.66,2.75c0,0-5.57,3.94-6,7.85,0,0-5.32-5.29.67-15.16S176.64,206.85,179.58,213.78Z" style="fill:#263238"></path><path d="M161.31,226a3.41,3.41,0,0,0-1.62-4.53c-2.22-1-5.68,2.74-1.08,6.75C159.27,228.77,160.11,228.28,161.31,226Z" style="fill:#eec1bb"></path><path d="M184,218.94s-7.18,6.81-16.51,4.61" style="fill:none;stroke:#263238;stroke-linecap:round;stroke-linejoin:round;stroke-width:0.706753540165186px"></path><path d="M167.49,232.11s-.56,2.25,2.13,4.5" style="fill:none;stroke:#263238;stroke-linecap:round;stroke-linejoin:round;stroke-width:0.706753540165186px"></path><path d="M152.48,248.32a64.72,64.72,0,0,1-14,.05,10.36,10.36,0,0,1-2.75.39,30.64,30.64,0,0,1-.78-5.57c-.27-6.16,1.09-17.1,2.58-19s8.37.9,9.18,6.09c0,0,.94,14,2.19,15.21C149.62,246.13,151.21,247.36,152.48,248.32Z" style="opacity:0.2;isolation:isolate"></path><path d="M141.46,218.94c-10.72,1.56-2.24,34.35,0,36.59s15.82,16.2,15.82,16.2l4.34-4.49s-12.46-15.92-13.81-17.92S146.73,224,146.73,224,147,218.14,141.46,218.94Z" style="fill:#407BFF"></path></g><g id="freepik--filing-cabinet--inject-70"><rect x="226.15" y="122.52" width="192.7" height="293.39" style="fill:#407BFF"></rect><rect x="226.15" y="122.52" width="192.7" height="293.39" style="fill:#fff;opacity:0.6000000000000001"></rect><rect x="344.01" y="122.52" width="74.84" height="293.39" style="opacity:0.2;isolation:isolate"></rect><rect x="231.79" y="279.51" width="105.91" height="105.91" style="opacity:0.2;isolation:isolate"></rect><rect x="310.95" y="279.51" width="26.75" height="105.91" style="opacity:0.2;isolation:isolate"></rect><polygon points="231.79 279.51 262.74 310.45 310.94 310.45 337.7 310.45 337.7 279.51 231.79 279.51" style="opacity:0.2;isolation:isolate"></polygon><rect x="231.79" y="164.63" width="105.91" height="105.91" style="opacity:0.2;isolation:isolate"></rect><rect x="231.79" y="164.63" width="102.89" height="105.91" style="fill:#407BFF"></rect><rect x="231.79" y="164.63" width="102.89" height="105.91" style="fill:#fff;opacity:0.7000000000000001"></rect><rect x="260.57" y="177.3" width="36.79" height="9.49" style="fill:#fff"></rect><path d="M313.39,224.41l-9.74-12.84h-1.94v8.72h-2.57l3.31,4.12a.27.27,0,0,1-.21.43H274.5a1.61,1.61,0,0,1-1.26-.63l-3-3.92H259.14l8,10a1.6,1.6,0,0,0,1.24.59h43.72a1.58,1.58,0,0,0,1.58-1.58v-3.95A1.58,1.58,0,0,0,313.39,224.41Z" style="opacity:0.1;isolation:isolate"></path><rect x="248.7" y="210.92" width="55.19" height="10.68" rx="1.55" style="fill:#407BFF"></rect><rect x="248.7" y="210.92" width="42.73" height="10.68" rx="1.55" style="fill:#fff;opacity:0.2"></rect><path d="M263.55,183.06a8.69,8.69,0,0,0,4.79-3.88,5.61,5.61,0,0,0-2.41,4.53c1.78.28,2.58-2.44,4.32-2.92l-.6,2.64a3.14,3.14,0,0,0,2.49-.85,5.11,5.11,0,0,0,3.68-1.44,1.36,1.36,0,0,0-1.68-.57l5.65.53a1,1,0,0,0-1.24,1.05,1,1,0,0,0,1.6.53,1,1,0,0,0,.34-.52,1.69,1.69,0,0,1,.16-.51c.2-.28.61-.25.94-.2a39.76,39.76,0,0,0,10.28.26" style="fill:none;stroke:#263238;stroke-linecap:round;stroke-linejoin:round;stroke-width:0.5px"></path><polygon points="337.7 330.02 344.01 337.87 344.01 415.91 249.47 415.91 226.15 390.21 337.7 330.02" style="opacity:0.1;isolation:isolate"></polygon><rect x="232.45" y="134.98" width="49.19" height="19.19" style="fill:#407BFF"></rect><rect x="232.45" y="134.98" width="16.42" height="19.19" style="fill:#fff"></rect><path d="M245.73,141.68c-.53,2.92-.84,4.24.11,6.42s.44,2.67-.61,3-9,2.34-9.62-.55.52-2.94,0-5.3-.84-5.15.08-6.5S245.73,141.68,245.73,141.68Z" style="fill:#263238"></path><path d="M233.37,151.77a11.59,11.59,0,0,1,6.72-1.79,23,23,0,0,1,8.06,1.79v1.41H233.37Z" style="fill:#407BFF"></path><path d="M243.14,150.6a3,3,0,0,1-1.81,1.85c-1.38-.3-3.36-2.28-3.36-2.28,1.17-.67.94-2.62.67-3.8v0a8.87,8.87,0,0,0-.24-.88.1.1,0,0,1,0,0l1.47-.22,2.17,1.92s0,.15-.08.38a5.86,5.86,0,0,0-.11,2.32,1,1,0,0,0,.12.25A1.51,1.51,0,0,0,243.14,150.6Z" style="fill:#eec1bb"></path><path d="M242,150.06a2.46,2.46,0,0,1-.72-.12c-1.39-.43-2.21-2.37-2.59-3.57v0a7.52,7.52,0,0,1-.24-.88.1.1,0,0,1,0,0l3.56,2.08a5.86,5.86,0,0,0-.11,2.32A1,1,0,0,0,242,150.06Z" style="opacity:0.2;isolation:isolate"></path><path d="M241.62,137.09s3.77-.12,4.17,2.94a4.63,4.63,0,0,1-2.06,4.52Z" style="fill:#263238"></path><path d="M241.13,138.66c2.78.11,3.61,1.63,3.7,4.5.12,3.58-.77,6.09-4.21,5.19C235.94,147.13,236.52,138.48,241.13,138.66Z" style="fill:#eec1bb"></path><path d="M243.05,142.93a5.58,5.58,0,0,0,.76,1.18.77.77,0,0,1-.75.29Z" style="fill:#d4827d"></path><path d="M241.36,142.64c0,.23-.13.41-.29.41s-.27-.19-.27-.42.13-.41.29-.41S241.36,142.41,241.36,142.64Z" style="fill:#263238"></path><path d="M241,142.23l.5-.19S241.27,142.46,241,142.23Z" style="fill:#263238"></path><path d="M244.19,142.63c0,.23-.13.42-.28.41s-.27-.19-.27-.41.13-.41.28-.41S244.2,142.41,244.19,142.63Z" style="fill:#263238"></path><path d="M243.86,142.23l.5-.19S244.11,142.45,243.86,142.23Z" style="fill:#263238"></path><path d="M240.18,141.22a.11.11,0,0,1-.08,0,.13.13,0,0,1,0-.18,1.53,1.53,0,0,1,1.33-.41.12.12,0,0,1,.11.14.14.14,0,0,1-.15.11,1.26,1.26,0,0,0-1.1.33A.13.13,0,0,1,240.18,141.22Z" style="fill:#263238"></path><path d="M244.52,141.08l-.07,0a1.21,1.21,0,0,0-1-.26.13.13,0,0,1-.16-.08.13.13,0,0,1,.08-.16,1.41,1.41,0,0,1,1.22.29.14.14,0,0,1,0,.18A.12.12,0,0,1,244.52,141.08Z" style="fill:#263238"></path><path d="M237.91,143.22a8.31,8.31,0,0,0,1.26-4s5.59-2,5.65,3.56c0,0,.73-4.94-4-5.23s-5.56,5.66-3.18,7.84C237.6,145.39,237.06,144.62,237.91,143.22Z" style="fill:#263238"></path><path d="M242.11,136.92s1.58,0,2.16.68-3.65,4.11-6.09,4.31c0,0-1.11,2.18-.58,3.48,0,0-2.56-.79-2.3-4.92A4.38,4.38,0,0,1,242.11,136.92Z" style="fill:#263238"></path><path d="M238.35,143.82a1.23,1.23,0,0,0-1.27-1.16c-.87.06-1.34,1.81.78,2.32C238.16,145.05,238.35,144.76,238.35,143.82Z" style="fill:#eec1bb"></path><path d="M239.9,142.16a.13.13,0,0,1-.12-.1.11.11,0,0,1,.09-.15,6.89,6.89,0,0,0,4.38-4.13.13.13,0,0,1,.24.08,7.14,7.14,0,0,1-4.56,4.29Z" style="fill:#263238"></path><path d="M242.75,145.94h0a1.81,1.81,0,0,1-1.52-1.17.13.13,0,0,1,.09-.15.13.13,0,0,1,.16.09s.2.74,1.33,1a.13.13,0,0,1,.09.15A.12.12,0,0,1,242.75,145.94Z" style="fill:#263238"></path><path d="M246.34,148.39a.13.13,0,0,1-.12-.09,3,3,0,0,0-.22-.48,4.18,4.18,0,0,1-.29-2.85l0-.19c.28-2.23.59-4.76-1.17-6.32a.12.12,0,0,1,0-.17.13.13,0,0,1,.18,0c1.87,1.64,1.54,4.24,1.26,6.53l0,.19c-.22,1.76,0,2.22.27,2.7a4.28,4.28,0,0,1,.22.52.12.12,0,0,1-.07.16Z" style="fill:#263238"></path><path d="M266.07,139.93H252.49a1.2,1.2,0,0,1-1.2-1.2h0a1.19,1.19,0,0,1,1.2-1.19h13.58a1.19,1.19,0,0,1,1.19,1.19h0A1.19,1.19,0,0,1,266.07,139.93Z" style="fill:#fff"></path><path d="M275.47,145.71H252.23a.94.94,0,0,1-.94-.94h0a.94.94,0,0,1,.94-1h23.24a.94.94,0,0,1,.94,1h0A.94.94,0,0,1,275.47,145.71Z" style="fill:#fff"></path><path d="M271.47,149.33H252.23a.94.94,0,0,1-.94-.94h0a.94.94,0,0,1,.94-.95h19.24a.94.94,0,0,1,.94.95h0A.94.94,0,0,1,271.47,149.33Z" style="fill:#fff"></path><path d="M329.61,291.11H272.93l-.58-3.66a1.67,1.67,0,0,0-1.69-1.42H255a2.2,2.2,0,0,0-2,1.42l-1.37,3.66H238.91a5,5,0,0,0-4.87,4.4l-7.75,71a3.87,3.87,0,0,0,3.91,4.41h90.7a5,5,0,0,0,4.86-4.41l7.75-71A3.86,3.86,0,0,0,329.61,291.11Z" style="fill:#407BFF"></path><path d="M329.61,291.11H272.93l-.58-3.66a1.67,1.67,0,0,0-1.69-1.42H255a2.2,2.2,0,0,0-2,1.42l-1.37,3.66H238.91a5,5,0,0,0-4.87,4.4l-7.75,71a3.87,3.87,0,0,0,3.91,4.41h90.7a5,5,0,0,0,4.86-4.41l7.75-71A3.86,3.86,0,0,0,329.61,291.11Z" style="opacity:0.4;isolation:isolate"></path><polygon points="226.44 368.2 229.48 294.38 327.54 294.38 322.66 366.58 226.44 368.2" style="fill:#407BFF"></polygon><polygon points="226.44 368.2 229.48 294.38 327.54 294.38 322.66 366.58 226.44 368.2" style="fill:#fff;opacity:0.7000000000000001"></polygon><path d="M319.64,371.2H228.93a4.22,4.22,0,0,1-4.35-4.11l.55-66.22a4.28,4.28,0,0,1,4.41-4.11h90.71a4.22,4.22,0,0,1,4.35,4.11l-.54,66.22A4.3,4.3,0,0,1,319.64,371.2Z" style="fill:#407BFF"></path><path d="M319.64,371.2H228.93a4.22,4.22,0,0,1-4.35-4.11l.55-66.22a4.28,4.28,0,0,1,4.41-4.11h90.71a4.22,4.22,0,0,1,4.35,4.11l-.54,66.22A4.3,4.3,0,0,1,319.64,371.2Z" style="opacity:0.25;isolation:isolate"></path><polygon points="283.24 296.76 285.08 363.94 235.45 363.94 232.57 296.76 283.24 296.76" style="opacity:0.15;isolation:isolate"></polygon><path d="M268.58,288.86H211.9l-1-3.64a1.9,1.9,0,0,0-1.84-1.42H193.43a1.9,1.9,0,0,0-1.84,1.42l-1,3.64H177.88a4.38,4.38,0,0,0-4.38,4.38v70.64a4.38,4.38,0,0,0,4.38,4.38h90.7a4.39,4.39,0,0,0,4.39-4.38V293.24A4.39,4.39,0,0,0,268.58,288.86Z" style="fill:#407BFF"></path><path d="M268.58,288.86H211.9l-1-3.64a1.9,1.9,0,0,0-1.84-1.42H193.43a1.9,1.9,0,0,0-1.84,1.42l-1,3.64H177.88a4.38,4.38,0,0,0-4.38,4.38v70.64a4.38,4.38,0,0,0,4.38,4.38h90.7a4.39,4.39,0,0,0,4.39-4.38V293.24A4.39,4.39,0,0,0,268.58,288.86Z" style="opacity:0.15;isolation:isolate"></path><polygon points="173.83 365.56 168.81 292.11 266.87 292.11 269.87 363.94 173.83 365.56" style="fill:#407BFF"></polygon><polygon points="173.83 365.56 168.81 292.11 266.87 292.11 269.87 363.94 173.83 365.56" style="fill:#fff;opacity:0.8"></polygon><path d="M267.35,368.54h-90.7a4.81,4.81,0,0,1-4.8-4.09l-6.69-65.88a3.77,3.77,0,0,1,4-4.09h90.71a4.79,4.79,0,0,1,4.79,4.09l6.69,65.88A3.77,3.77,0,0,1,267.35,368.54Z" style="fill:#407BFF"></path><polygon points="243.72 344.26 337.7 330.02 337.7 381.19 250.6 397.86 243.72 344.26" style="fill:#407BFF"></polygon><polygon points="243.72 344.26 337.7 330.02 337.7 381.19 250.6 397.86 243.72 344.26" style="fill:#fff;opacity:0.5"></polygon><polygon points="243.72 344.26 245.04 345.71 337.7 331.46 337.7 330.02 243.72 344.26" style="fill:#fff;opacity:0.7000000000000001"></polygon><polygon points="259.14 341.93 263.38 342.89 266.87 394.75 250.6 397.86 243.72 344.26 259.14 341.93" style="opacity:0.2;isolation:isolate"></polygon><polygon points="259.14 404.6 153.24 404.6 146.58 300.27 252.49 300.27 259.14 404.6" style="fill:#407BFF"></polygon><polygon points="259.14 404.6 153.24 404.6 146.58 300.27 252.49 300.27 259.14 404.6" style="fill:#fff;opacity:0.7000000000000001"></polygon><polygon points="259.14 404.6 256.13 404.6 249.47 300.27 252.49 300.27 259.14 404.6" style="opacity:0.2;isolation:isolate"></polygon><polygon points="213.54 322.11 176.75 322.11 176.16 312.75 212.95 312.75 213.54 322.11" style="fill:#fff"></polygon><path d="M231.94,359.16l-10.55-12.65h-1.94l.55,8.59h-2.57l3.56,4.06a.25.25,0,0,1-.18.42H193.07a1.72,1.72,0,0,1-1.3-.62l-3.22-3.86H177.43l8.66,9.87a1.7,1.7,0,0,0,1.27.59h43.73a1.46,1.46,0,0,0,1.48-1.56l-.25-3.89A1.69,1.69,0,0,0,231.94,359.16Z" style="opacity:0.1;isolation:isolate"></path><path d="M220.71,356.4H168.62a1.66,1.66,0,0,1-1.64-1.53l-.48-7.47a1.42,1.42,0,0,1,1.45-1.52H220a1.67,1.67,0,0,1,1.65,1.52l.47,7.47A1.42,1.42,0,0,1,220.71,356.4Z" style="fill:#407BFF"></path><path d="M208.25,356.4H168.62a1.66,1.66,0,0,1-1.64-1.53l-.48-7.47a1.42,1.42,0,0,1,1.45-1.52h39.63a1.65,1.65,0,0,1,1.64,1.52l.48,7.47A1.43,1.43,0,0,1,208.25,356.4Z" style="fill:#fff;opacity:0.2"></path><path d="M179.85,317.44a3.52,3.52,0,0,0,3.87-1.17c0,.79-.23,1.81-.18,2.71a8.48,8.48,0,0,0,1.7-2.45c-.74,1.63,1.2,2,2.34,1.46a2.28,2.28,0,0,0,1.33-1.95c0-.26-.11-.58-.37-.63s-.46.17-.59.38c-.46.71-1,2.67.12,2.91s2.42-1.65,2.72-2.42a1.7,1.7,0,0,0-.93,1.66c1.16-.05,2.75.23,2.82-1.33-.1,2.06,1.86,1.36,2.58,0-.23.73.86,1.1,1.62,1.09l10.21-.23" style="fill:none;stroke:#263238;stroke-linecap:round;stroke-linejoin:round;stroke-width:0.5px"></path></g></svg>